<mxfile host="app.diagrams.net" modified="2021-03-12T01:36:17.592Z" agent="5.0 (Windows NT 10.0; Win64; x64) AppleWebKit/537.36 (KHTML, like Gecko) Chrome/88.0.4324.190 Safari/537.36" etag="VK9LWsFqmMcxhASuLsg0" version="14.4.7" type="github">
  <diagram id="gJyXVvCACwAV23tm7yn-" name="Page-1">
    <mxGraphModel dx="1422" dy="705" grid="1" gridSize="10" guides="1" tooltips="1" connect="1" arrows="1" fold="1" page="1" pageScale="1" pageWidth="850" pageHeight="1100" math="0" shadow="0">
      <root>
        <mxCell id="0" />
        <mxCell id="1" parent="0" />
        <mxCell id="1VtM5w_SDw7AZWu6NxiK-1" value="&lt;u&gt;Sname&lt;/u&gt;" style="rounded=0;whiteSpace=wrap;html=1;" vertex="1" parent="1">
          <mxGeometry x="160" y="140" width="90" height="40" as="geometry" />
        </mxCell>
        <mxCell id="1VtM5w_SDw7AZWu6NxiK-2" value="Owner" style="rounded=0;whiteSpace=wrap;html=1;" vertex="1" parent="1">
          <mxGeometry x="250" y="140" width="90" height="40" as="geometry" />
        </mxCell>
        <mxCell id="1VtM5w_SDw7AZWu6NxiK-39" style="edgeStyle=orthogonalEdgeStyle;rounded=0;orthogonalLoop=1;jettySize=auto;html=1;exitX=0.5;exitY=1;exitDx=0;exitDy=0;entryX=0.5;entryY=1;entryDx=0;entryDy=0;" edge="1" parent="1" source="1VtM5w_SDw7AZWu6NxiK-3" target="1VtM5w_SDw7AZWu6NxiK-12">
          <mxGeometry relative="1" as="geometry">
            <Array as="points">
              <mxPoint x="385" y="200" />
              <mxPoint x="620" y="200" />
              <mxPoint x="620" y="420" />
              <mxPoint x="205" y="420" />
            </Array>
          </mxGeometry>
        </mxCell>
        <mxCell id="1VtM5w_SDw7AZWu6NxiK-3" value="Ship_type&lt;span style=&quot;color: rgba(0 , 0 , 0 , 0) ; font-family: monospace ; font-size: 0px&quot;&gt;%3CmxGraphModel%3E%3Croot%3E%3CmxCell%20id%3D%220%22%2F%3E%3CmxCell%20id%3D%221%22%20parent%3D%220%22%2F%3E%3CmxCell%20id%3D%222%22%20value%3D%22Owner%22%20style%3D%22rounded%3D0%3BwhiteSpace%3Dwrap%3Bhtml%3D1%3B%22%20vertex%3D%221%22%20parent%3D%221%22%3E%3CmxGeometry%20x%3D%22250%22%20y%3D%22140%22%20width%3D%2290%22%20height%3D%2240%22%20as%3D%22geometry%22%2F%3E%3C%2FmxCell%3E%3C%2Froot%3E%3C%2FmxGraphModel%3E&lt;/span&gt;&lt;span style=&quot;color: rgba(0 , 0 , 0 , 0) ; font-family: monospace ; font-size: 0px&quot;&gt;%3CmxGraphModel%3E%3Croot%3E%3CmxCell%20id%3D%220%22%2F%3E%3CmxCell%20id%3D%221%22%20parent%3D%220%22%2F%3E%3CmxCell%20id%3D%222%22%20value%3D%22Owner%22%20style%3D%22rounded%3D0%3BwhiteSpace%3Dwrap%3Bhtml%3D1%3B%22%20vertex%3D%221%22%20parent%3D%221%22%3E%3CmxGeometry%20x%3D%22250%22%20y%3D%22140%22%20width%3D%2290%22%20height%3D%2240%22%20as%3D%22geometry%22%2F%3E%3C%2FmxCell%3E%3C%2Froot%3E%3C%2FmxGraphModel%3E&lt;/span&gt;" style="rounded=0;whiteSpace=wrap;html=1;" vertex="1" parent="1">
          <mxGeometry x="340" y="140" width="90" height="40" as="geometry" />
        </mxCell>
        <mxCell id="1VtM5w_SDw7AZWu6NxiK-4" value="Pname" style="rounded=0;whiteSpace=wrap;html=1;" vertex="1" parent="1">
          <mxGeometry x="430" y="140" width="90" height="40" as="geometry" />
        </mxCell>
        <mxCell id="1VtM5w_SDw7AZWu6NxiK-5" value="&lt;font style=&quot;font-size: 18px&quot;&gt;Ship&lt;/font&gt;" style="text;html=1;strokeColor=none;fillColor=none;align=center;verticalAlign=middle;whiteSpace=wrap;rounded=0;" vertex="1" parent="1">
          <mxGeometry x="140" y="110" width="80" height="30" as="geometry" />
        </mxCell>
        <mxCell id="1VtM5w_SDw7AZWu6NxiK-42" style="edgeStyle=orthogonalEdgeStyle;rounded=0;orthogonalLoop=1;jettySize=auto;html=1;exitX=0;exitY=0.5;exitDx=0;exitDy=0;entryX=0;entryY=0.25;entryDx=0;entryDy=0;" edge="1" parent="1" source="1VtM5w_SDw7AZWu6NxiK-6" target="1VtM5w_SDw7AZWu6NxiK-1">
          <mxGeometry relative="1" as="geometry">
            <Array as="points">
              <mxPoint x="110" y="270" />
              <mxPoint x="110" y="150" />
            </Array>
          </mxGeometry>
        </mxCell>
        <mxCell id="1VtM5w_SDw7AZWu6NxiK-6" value="&lt;u&gt;Sname&lt;/u&gt;" style="rounded=0;whiteSpace=wrap;html=1;" vertex="1" parent="1">
          <mxGeometry x="160" y="250" width="90" height="40" as="geometry" />
        </mxCell>
        <mxCell id="1VtM5w_SDw7AZWu6NxiK-7" value="&lt;u&gt;Date&lt;/u&gt;" style="rounded=0;whiteSpace=wrap;html=1;" vertex="1" parent="1">
          <mxGeometry x="250" y="250" width="90" height="40" as="geometry" />
        </mxCell>
        <mxCell id="1VtM5w_SDw7AZWu6NxiK-8" value="&lt;u&gt;Time&lt;/u&gt;" style="rounded=0;whiteSpace=wrap;html=1;" vertex="1" parent="1">
          <mxGeometry x="340" y="250" width="90" height="40" as="geometry" />
        </mxCell>
        <mxCell id="1VtM5w_SDw7AZWu6NxiK-9" value="Longitude" style="rounded=0;whiteSpace=wrap;html=1;" vertex="1" parent="1">
          <mxGeometry x="430" y="250" width="90" height="40" as="geometry" />
        </mxCell>
        <mxCell id="1VtM5w_SDw7AZWu6NxiK-10" value="&lt;font style=&quot;font-size: 18px&quot;&gt;Ship_Movement&lt;/font&gt;" style="text;html=1;strokeColor=none;fillColor=none;align=center;verticalAlign=middle;whiteSpace=wrap;rounded=0;" vertex="1" parent="1">
          <mxGeometry x="185" y="220" width="80" height="30" as="geometry" />
        </mxCell>
        <mxCell id="1VtM5w_SDw7AZWu6NxiK-11" value="Latitude" style="rounded=0;whiteSpace=wrap;html=1;" vertex="1" parent="1">
          <mxGeometry x="520" y="250" width="90" height="40" as="geometry" />
        </mxCell>
        <mxCell id="1VtM5w_SDw7AZWu6NxiK-12" value="&lt;u&gt;Type&lt;/u&gt;" style="rounded=0;whiteSpace=wrap;html=1;" vertex="1" parent="1">
          <mxGeometry x="160" y="360" width="90" height="40" as="geometry" />
        </mxCell>
        <mxCell id="1VtM5w_SDw7AZWu6NxiK-13" value="Tonnage" style="rounded=0;whiteSpace=wrap;html=1;" vertex="1" parent="1">
          <mxGeometry x="250" y="360" width="90" height="40" as="geometry" />
        </mxCell>
        <mxCell id="1VtM5w_SDw7AZWu6NxiK-14" value="Hull" style="rounded=0;whiteSpace=wrap;html=1;" vertex="1" parent="1">
          <mxGeometry x="340" y="360" width="90" height="40" as="geometry" />
        </mxCell>
        <mxCell id="1VtM5w_SDw7AZWu6NxiK-16" value="&lt;font style=&quot;font-size: 18px&quot;&gt;Ship_type&lt;/font&gt;" style="text;html=1;strokeColor=none;fillColor=none;align=center;verticalAlign=middle;whiteSpace=wrap;rounded=0;" vertex="1" parent="1">
          <mxGeometry x="160" y="330" width="80" height="30" as="geometry" />
        </mxCell>
        <mxCell id="1VtM5w_SDw7AZWu6NxiK-37" style="edgeStyle=orthogonalEdgeStyle;rounded=0;orthogonalLoop=1;jettySize=auto;html=1;exitX=0.5;exitY=1;exitDx=0;exitDy=0;entryX=1;entryY=0.5;entryDx=0;entryDy=0;startArrow=classic;startFill=1;endArrow=none;endFill=0;" edge="1" parent="1" source="1VtM5w_SDw7AZWu6NxiK-17" target="1VtM5w_SDw7AZWu6NxiK-4">
          <mxGeometry relative="1" as="geometry">
            <mxPoint x="680" y="140" as="targetPoint" />
            <Array as="points">
              <mxPoint x="205" y="530" />
              <mxPoint x="660" y="530" />
              <mxPoint x="660" y="160" />
            </Array>
          </mxGeometry>
        </mxCell>
        <mxCell id="1VtM5w_SDw7AZWu6NxiK-17" value="&lt;u&gt;Pname&lt;/u&gt;" style="rounded=0;whiteSpace=wrap;html=1;" vertex="1" parent="1">
          <mxGeometry x="160" y="470" width="90" height="40" as="geometry" />
        </mxCell>
        <mxCell id="1VtM5w_SDw7AZWu6NxiK-38" style="edgeStyle=orthogonalEdgeStyle;rounded=0;orthogonalLoop=1;jettySize=auto;html=1;exitX=0.5;exitY=1;exitDx=0;exitDy=0;entryX=1;entryY=0.75;entryDx=0;entryDy=0;" edge="1" parent="1" source="1VtM5w_SDw7AZWu6NxiK-18" target="1VtM5w_SDw7AZWu6NxiK-22">
          <mxGeometry relative="1" as="geometry">
            <Array as="points">
              <mxPoint x="295" y="520" />
              <mxPoint x="330" y="520" />
              <mxPoint x="330" y="610" />
            </Array>
          </mxGeometry>
        </mxCell>
        <mxCell id="1VtM5w_SDw7AZWu6NxiK-18" value="SOL_name" style="rounded=0;whiteSpace=wrap;html=1;" vertex="1" parent="1">
          <mxGeometry x="250" y="470" width="90" height="40" as="geometry" />
        </mxCell>
        <mxCell id="1VtM5w_SDw7AZWu6NxiK-41" style="edgeStyle=orthogonalEdgeStyle;rounded=0;orthogonalLoop=1;jettySize=auto;html=1;exitX=0.5;exitY=1;exitDx=0;exitDy=0;entryX=0.5;entryY=1;entryDx=0;entryDy=0;" edge="1" parent="1" source="1VtM5w_SDw7AZWu6NxiK-19" target="1VtM5w_SDw7AZWu6NxiK-26">
          <mxGeometry relative="1" as="geometry" />
        </mxCell>
        <mxCell id="1VtM5w_SDw7AZWu6NxiK-19" value="SC_name" style="rounded=0;whiteSpace=wrap;html=1;" vertex="1" parent="1">
          <mxGeometry x="340" y="470" width="90" height="40" as="geometry" />
        </mxCell>
        <mxCell id="1VtM5w_SDw7AZWu6NxiK-21" value="&lt;font style=&quot;font-size: 18px&quot;&gt;Port&lt;/font&gt;" style="text;html=1;strokeColor=none;fillColor=none;align=center;verticalAlign=middle;whiteSpace=wrap;rounded=0;" vertex="1" parent="1">
          <mxGeometry x="140" y="440" width="80" height="30" as="geometry" />
        </mxCell>
        <mxCell id="1VtM5w_SDw7AZWu6NxiK-22" value="&lt;u&gt;Name&lt;/u&gt;" style="rounded=0;whiteSpace=wrap;html=1;" vertex="1" parent="1">
          <mxGeometry x="160" y="580" width="90" height="40" as="geometry" />
        </mxCell>
        <mxCell id="1VtM5w_SDw7AZWu6NxiK-25" value="&lt;span style=&quot;font-size: 18px&quot;&gt;SEA/OCEAN/LAKE&lt;/span&gt;" style="text;html=1;strokeColor=none;fillColor=none;align=center;verticalAlign=middle;whiteSpace=wrap;rounded=0;" vertex="1" parent="1">
          <mxGeometry x="155" y="550" width="170" height="30" as="geometry" />
        </mxCell>
        <mxCell id="1VtM5w_SDw7AZWu6NxiK-26" value="&lt;u&gt;Name&lt;/u&gt;" style="rounded=0;whiteSpace=wrap;html=1;" vertex="1" parent="1">
          <mxGeometry x="160" y="690" width="90" height="40" as="geometry" />
        </mxCell>
        <mxCell id="1VtM5w_SDw7AZWu6NxiK-27" value="&lt;span style=&quot;font-size: 18px&quot;&gt;STATE/COUNTRY&lt;/span&gt;" style="text;html=1;strokeColor=none;fillColor=none;align=center;verticalAlign=middle;whiteSpace=wrap;rounded=0;" vertex="1" parent="1">
          <mxGeometry x="150" y="660" width="170" height="30" as="geometry" />
        </mxCell>
        <mxCell id="1VtM5w_SDw7AZWu6NxiK-28" value="Continent" style="rounded=0;whiteSpace=wrap;html=1;" vertex="1" parent="1">
          <mxGeometry x="250" y="690" width="90" height="40" as="geometry" />
        </mxCell>
        <mxCell id="1VtM5w_SDw7AZWu6NxiK-35" style="edgeStyle=orthogonalEdgeStyle;rounded=0;orthogonalLoop=1;jettySize=auto;html=1;exitX=0.5;exitY=1;exitDx=0;exitDy=0;entryX=0;entryY=0.5;entryDx=0;entryDy=0;" edge="1" parent="1" source="1VtM5w_SDw7AZWu6NxiK-29" target="1VtM5w_SDw7AZWu6NxiK-1">
          <mxGeometry relative="1" as="geometry">
            <mxPoint x="130" y="190" as="targetPoint" />
          </mxGeometry>
        </mxCell>
        <mxCell id="1VtM5w_SDw7AZWu6NxiK-29" value="&lt;u&gt;Sname&lt;/u&gt;" style="rounded=0;whiteSpace=wrap;html=1;" vertex="1" parent="1">
          <mxGeometry x="160" y="790" width="90" height="40" as="geometry" />
        </mxCell>
        <mxCell id="1VtM5w_SDw7AZWu6NxiK-30" value="&lt;u&gt;StartDate&lt;/u&gt;" style="rounded=0;whiteSpace=wrap;html=1;" vertex="1" parent="1">
          <mxGeometry x="250" y="790" width="90" height="40" as="geometry" />
        </mxCell>
        <mxCell id="1VtM5w_SDw7AZWu6NxiK-31" value="EndDate" style="rounded=0;whiteSpace=wrap;html=1;" vertex="1" parent="1">
          <mxGeometry x="340" y="790" width="90" height="40" as="geometry" />
        </mxCell>
        <mxCell id="1VtM5w_SDw7AZWu6NxiK-32" value="&lt;span style=&quot;font-size: 18px&quot;&gt;Visits&lt;/span&gt;" style="text;html=1;strokeColor=none;fillColor=none;align=center;verticalAlign=middle;whiteSpace=wrap;rounded=0;" vertex="1" parent="1">
          <mxGeometry x="141" y="760" width="80" height="30" as="geometry" />
        </mxCell>
        <mxCell id="1VtM5w_SDw7AZWu6NxiK-40" style="edgeStyle=orthogonalEdgeStyle;rounded=0;orthogonalLoop=1;jettySize=auto;html=1;exitX=0.5;exitY=0;exitDx=0;exitDy=0;" edge="1" parent="1" source="1VtM5w_SDw7AZWu6NxiK-34">
          <mxGeometry relative="1" as="geometry">
            <mxPoint x="198" y="514" as="targetPoint" />
            <Array as="points">
              <mxPoint x="475" y="540" />
              <mxPoint x="198" y="540" />
            </Array>
          </mxGeometry>
        </mxCell>
        <mxCell id="1VtM5w_SDw7AZWu6NxiK-34" value="Pname" style="rounded=0;whiteSpace=wrap;html=1;" vertex="1" parent="1">
          <mxGeometry x="430" y="790" width="90" height="40" as="geometry" />
        </mxCell>
      </root>
    </mxGraphModel>
  </diagram>
</mxfile>
